<svg xmlns="http://www.w3.org/2000/svg" version="1.1" xmlns:xlink="http://www.w3.org/1999/xlink" width="512" height="512" x="0" y="0" viewBox="0 0 512 512" style="enable-background:new 0 0 512 512" xml:space="preserve" class=""><g><path fill="#946645" d="M512 375.26c0 11.27-4.19 28.31-24.16 45.47-13.52 11.62-32.46 21.9-56.3 30.57-47.12 17.13-109.46 26.56-175.54 26.56s-128.42-9.43-175.54-26.56c-23.84-8.67-42.78-18.95-56.3-30.57C4.19 403.57 0 386.53 0 375.26c0-31.49 30.84-59.29 86.84-78.28l2.34-.79h333.64l2.34.79c56 18.99 86.84 46.79 86.84 78.28z" opacity="1" data-original="#ffd82c" class=""></path><path fill="#088f8f" d="m427.3 106.255-19.331-53.108-53.109 19.33c-16.378 5.962-30.544 16.453-40.965 30.342l-4.306 5.739 18.131 71.432 85.437 13.605 5.299-8.245c15.269-23.757 18.492-52.586 8.844-79.095z" opacity="1" data-original="#a81345" class=""></path><path fill="#18b0b0" d="m157.14 72.477-53.109-19.33L84.7 106.256c-9.648 26.508-6.425 55.337 8.843 79.094l5.299 8.245 85.445-13.604 18.121-71.437-4.306-5.737c-10.42-13.887-24.585-24.379-40.962-30.34z" opacity="1" data-original="#db4242" class=""></path><path fill="#1fd2d2" d="M338.73 185.07 256 282.22l-82.73-97.15c-4.95-36.49 6.59-74.8 34.65-102.85L256 34.14l48.08 48.08c28.05 28.05 39.6 66.36 34.65 102.85z" opacity="1" data-original="#ff9985" class=""></path><path fill="#157878" d="M472.69 160.79v35.79c0 59.84-24.25 114.01-63.47 153.23-39.21 39.21-93.38 63.46-153.22 63.46-119.67 0-216.69-97.01-216.69-216.69v-35.79h95.26c67.07 0 121.43 54.37 121.43 121.43 0-67.06 54.36-121.43 121.43-121.43z" opacity="1" data-original="#ff6648" class=""></path><path fill="#157878" d="M338.73 185.07 256 282.22V34.14l48.08 48.08c28.05 28.05 39.6 66.36 34.65 102.85z" opacity="1" data-original="#ff6648" class=""></path><path fill="#946645" d="M512 375.26c0 11.27-4.19 28.31-24.16 45.47-13.52 11.62-32.46 21.9-56.3 30.57-47.12 17.13-109.46 26.56-175.54 26.56V296.19h166.82l2.34.79c56 18.99 86.84 46.79 86.84 78.28z" opacity="1" data-original="#ffbe00" class=""></path><path fill="#18b0b0" d="M472.69 160.79v35.79c0 59.84-24.25 114.01-63.47 153.23-39.21 39.21-93.38 63.46-153.22 63.46V282.22c0-67.06 54.36-121.43 121.43-121.43z" opacity="1" data-original="#db4242" class=""></path></g></svg>