<svg xmlns="http://www.w3.org/2000/svg" xmlns:xlink="http://www.w3.org/1999/xlink" width="500" zoomAndPan="magnify" viewBox="0 0 375 217.499994" height="290" preserveAspectRatio="xMidYMid meet" version="1.2"><defs><clipPath id="a949a358a2"><path d="M 54.9375 0 L 300.035156 0 L 300.035156 151.96875 L 54.9375 151.96875 Z M 54.9375 0 "/></clipPath><clipPath id="14002b403d"><rect x="0" width="355" y="0" height="217"/></clipPath></defs><g id="08f1d7ddff"><g transform="matrix(1,0,0,1,10,0)"><g clip-path="url(#14002b403d)"><g clip-rule="nonzero" clip-path="url(#a949a358a2)"><path style=" stroke:none;fill-rule:evenodd;fill:#0097b2;fill-opacity:1;" d="M 118.332031 112.386719 C 118.066406 111.917969 117.621094 111.636719 117.242188 111.308594 C 113.710938 108.296875 110.421875 105.054688 107.375 101.550781 C 103.078125 96.617188 99.476562 91.210938 96.300781 85.527344 C 94.011719 81.441406 92.015625 77.199219 90.441406 72.773438 C 89.886719 71.207031 89.246094 69.671875 88.671875 68.109375 C 87.402344 64.628906 86.570312 61.023438 85.863281 57.398438 C 85.164062 53.820312 84.898438 50.179688 85.027344 46.523438 C 85.035156 46.316406 85.085938 46.117188 85.117188 45.878906 C 85.726562 45.820312 85.925781 46.328125 86.214844 46.632812 C 87.117188 47.570312 87.972656 48.546875 88.851562 49.507812 C 90.378906 51.175781 92.253906 52.414062 94.09375 53.683594 C 97.996094 56.378906 102.109375 58.714844 106.398438 60.746094 C 108.839844 61.910156 111.226562 63.183594 113.671875 64.34375 C 116.441406 65.65625 119.246094 66.898438 122.035156 68.171875 C 126.855469 70.378906 131.691406 72.5625 136.496094 74.8125 C 139.746094 76.332031 142.953125 77.949219 146.179688 79.523438 C 146.492188 79.671875 146.816406 79.796875 147.332031 80.015625 C 147.214844 79.597656 147.167969 79.359375 147.085938 79.132812 C 146.136719 76.476562 145.46875 73.75 145.089844 70.960938 C 144.972656 70.085938 144.882812 69.199219 144.867188 68.320312 C 144.832031 66.03125 144.878906 63.738281 144.832031 61.449219 C 144.773438 58.609375 145.328125 55.855469 145.90625 53.105469 C 147.160156 47.140625 149.59375 41.640625 152.652344 36.394531 C 153.773438 34.460938 154.832031 32.488281 155.984375 30.570312 C 157.570312 27.941406 159.230469 25.363281 160.824219 22.742188 C 163.535156 18.289062 166.765625 14.199219 169.75 9.9375 C 171.480469 7.46875 173.425781 5.148438 175.273438 2.761719 C 175.96875 1.863281 176.660156 0.964844 177.398438 0.00390625 C 177.609375 0.167969 177.792969 0.261719 177.90625 0.410156 C 179.941406 2.980469 182.003906 5.53125 183.992188 8.140625 C 185.628906 10.289062 187.171875 12.519531 188.777344 14.695312 C 191.460938 18.34375 193.847656 22.191406 196.296875 25.996094 C 197.757812 28.269531 199.058594 30.644531 200.410156 32.992188 C 201.679688 35.199219 203.003906 37.382812 204.167969 39.648438 C 206.648438 44.484375 208.511719 49.535156 209.511719 54.910156 C 210.222656 58.730469 210.1875 62.566406 210.210938 66.417969 C 210.226562 69.085938 209.925781 71.71875 209.34375 74.3125 C 208.992188 75.882812 208.453125 77.410156 207.996094 78.953125 C 207.910156 79.238281 207.816406 79.515625 207.664062 79.996094 C 208.085938 79.851562 208.320312 79.792969 208.53125 79.691406 C 211.808594 78.09375 215.066406 76.476562 218.351562 74.902344 C 220.605469 73.824219 222.882812 72.804688 225.152344 71.769531 C 228.511719 70.238281 231.867188 68.699219 235.238281 67.199219 C 240.5625 64.828125 245.765625 62.210938 250.96875 59.597656 C 255.679688 57.234375 260.167969 54.492188 264.285156 51.203125 C 265.859375 49.945312 267.160156 48.351562 268.582031 46.90625 C 268.964844 46.515625 269.230469 45.988281 269.78125 45.789062 C 269.878906 45.925781 269.988281 46.003906 269.992188 46.082031 C 270.019531 47.902344 270.132812 49.722656 269.886719 51.539062 C 269.734375 52.667969 269.644531 53.8125 269.503906 54.945312 C 268.949219 59.40625 267.820312 63.726562 266.386719 67.972656 C 264.988281 72.117188 263.335938 76.15625 261.488281 80.121094 C 258.191406 87.183594 254.027344 93.710938 249.164062 99.78125 C 246.761719 102.789062 244.148438 105.628906 241.257812 108.195312 C 240.015625 109.296875 238.769531 110.402344 237.546875 111.53125 C 237.253906 111.800781 236.824219 111.964844 236.714844 112.5 C 237.039062 112.5 237.34375 112.554688 237.621094 112.492188 C 241.75 111.542969 245.957031 111.285156 250.164062 111.019531 C 256.164062 110.640625 262.125 111.128906 268.082031 111.757812 C 270.203125 111.980469 272.328125 112.1875 274.429688 112.550781 C 279.707031 113.460938 284.976562 114.480469 290.113281 116.03125 C 293.144531 116.945312 296.097656 118.132812 299.082031 119.207031 C 299.410156 119.328125 299.714844 119.527344 299.992188 119.667969 C 300.160156 120.25 299.800781 120.53125 299.507812 120.800781 C 298.316406 121.886719 297.152344 123.007812 295.886719 124.011719 C 293.039062 126.28125 290.214844 128.597656 287.230469 130.679688 C 284.082031 132.882812 280.757812 134.84375 277.507812 136.898438 C 274.554688 138.761719 271.421875 140.296875 268.3125 141.863281 C 265.242188 143.40625 262.023438 144.613281 258.78125 145.75 C 258.390625 145.886719 257.984375 145.992188 257.605469 146.15625 C 255.359375 147.132812 253.035156 147.886719 250.695312 148.578125 C 248.507812 149.230469 246.300781 149.84375 244.066406 150.300781 C 241.625 150.800781 239.144531 151.136719 236.675781 151.5 C 235.441406 151.679688 234.191406 151.765625 232.949219 151.890625 C 232.496094 151.9375 232.039062 151.996094 231.636719 151.839844 C 231.511719 151.4375 231.777344 151.300781 231.933594 151.109375 C 232.457031 150.46875 233.066406 149.878906 233.507812 149.179688 C 235.332031 146.261719 235.441406 143.195312 234.0625 140.082031 C 233.617188 139.078125 232.832031 138.285156 231.9375 137.625 C 231.609375 137.386719 231.289062 137.140625 230.859375 136.816406 C 231.160156 136.617188 231.347656 136.453125 231.5625 136.359375 C 234.6875 135.015625 236.808594 132.667969 238.207031 129.636719 C 239.144531 127.605469 239.269531 125.421875 239.144531 123.21875 C 239.136719 123.027344 238.878906 122.722656 238.699219 122.691406 C 238.511719 122.664062 238.179688 122.851562 238.085938 123.035156 C 237.855469 123.492188 237.714844 124 237.546875 124.488281 C 237.226562 125.421875 236.898438 126.351562 236.03125 127.117188 C 235.835938 126.734375 235.679688 126.382812 235.488281 126.050781 C 235 125.1875 234.246094 124.824219 233.269531 124.929688 C 232.511719 125.011719 231.773438 125.304688 230.976562 125.003906 C 230.785156 124.929688 230.402344 125.195312 230.183594 125.390625 C 229.359375 126.105469 228.542969 126.835938 227.765625 127.597656 C 226.683594 128.65625 225.382812 129.226562 223.929688 129.554688 C 222.882812 129.796875 221.964844 129.585938 221.125 128.972656 C 220.621094 128.605469 220.144531 128.195312 219.699219 127.761719 C 217.160156 125.292969 214.621094 122.839844 212.546875 119.9375 C 210.691406 117.339844 208.378906 115.136719 206.042969 112.992188 C 204.8125 111.859375 204.125 110.558594 203.847656 108.984375 C 203.320312 106.015625 202.839844 103.039062 202.347656 100.0625 C 202.230469 99.34375 202.121094 98.625 202.050781 97.898438 C 201.808594 95.363281 201.613281 92.824219 201.347656 90.292969 C 201.195312 88.847656 201.046875 87.390625 200.710938 85.980469 C 200.296875 84.277344 199.25 83.007812 197.539062 82.390625 C 196.3125 81.953125 195.089844 81.511719 193.859375 81.085938 C 191.199219 80.160156 188.6875 78.90625 186.210938 77.582031 C 185.003906 76.933594 183.96875 76.027344 183.222656 74.882812 C 182.359375 73.550781 182.015625 72.023438 182.011719 70.433594 C 182.011719 69.882812 182.300781 69.441406 182.6875 69.070312 C 183.0625 68.710938 183.441406 68.355469 183.84375 68.027344 C 187.296875 65.179688 189.210938 61.449219 190.015625 57.121094 C 190.671875 53.609375 190.789062 50.074219 189.832031 46.597656 C 188.527344 41.867188 184.011719 38.210938 179.167969 37.476562 C 172.261719 36.429688 166.207031 41.488281 164.992188 47.421875 C 163.878906 52.84375 164.445312 58.109375 167.082031 63.039062 C 168.011719 64.785156 169.167969 66.398438 170.761719 67.648438 C 171.25 68.03125 171.671875 68.5 172.15625 68.898438 C 172.820312 69.4375 173.058594 70.125 173.007812 70.964844 C 172.828125 73.972656 171.363281 76.175781 168.761719 77.613281 C 165.609375 79.355469 162.320312 80.78125 158.90625 81.917969 C 158.460938 82.0625 158.011719 82.199219 157.574219 82.355469 C 155.6875 83.042969 154.640625 84.433594 154.230469 86.347656 C 153.828125 88.234375 153.699219 90.152344 153.554688 92.070312 C 153.125 97.726562 152.304688 103.332031 151.210938 108.898438 C 151.109375 109.40625 150.925781 109.898438 150.789062 110.402344 C 150.566406 111.230469 150.109375 111.894531 149.492188 112.484375 C 148.171875 113.742188 146.855469 115.007812 145.613281 116.339844 C 144.410156 117.628906 143.242188 118.96875 142.164062 120.363281 C 141.050781 121.808594 139.9375 123.25 138.617188 124.511719 C 137.078125 125.988281 135.476562 127.402344 133.984375 128.921875 C 133.082031 129.839844 132.054688 129.917969 130.972656 129.625 C 129.511719 129.222656 128.140625 128.601562 127.042969 127.480469 C 126.355469 126.773438 125.609375 126.121094 124.875 125.460938 C 124.464844 125.097656 124.003906 124.941406 123.433594 125.128906 C 123.167969 125.214844 122.828125 125.164062 122.542969 125.097656 C 120.851562 124.707031 120.289062 124.957031 119.394531 126.535156 C 119.320312 126.664062 119.210938 126.773438 119.085938 126.933594 C 118.453125 126.777344 118.183594 126.257812 117.949219 125.765625 C 117.699219 125.257812 117.554688 124.695312 117.371094 124.15625 C 117.253906 123.8125 117.164062 123.453125 117.019531 123.125 C 116.886719 122.828125 116.652344 122.585938 116.292969 122.667969 C 115.953125 122.75 115.808594 123.046875 115.777344 123.371094 C 115.746094 123.679688 115.742188 123.992188 115.75 124.304688 C 115.859375 127.40625 116.738281 130.238281 118.679688 132.703125 C 119.796875 134.121094 121.1875 135.183594 122.761719 136.027344 C 123.171875 136.25 123.597656 136.441406 124.140625 136.707031 C 123.875 136.964844 123.703125 137.195312 123.476562 137.34375 C 121.160156 138.894531 120.1875 141.117188 120.070312 143.839844 C 119.949219 146.625 121.03125 148.894531 122.855469 150.890625 C 123.03125 151.082031 123.214844 151.265625 123.386719 151.457031 C 123.421875 151.496094 123.429688 151.550781 123.457031 151.605469 C 123.296875 152.109375 122.863281 151.949219 122.546875 151.917969 C 120.269531 151.6875 117.992188 151.457031 115.722656 151.160156 C 113.351562 150.84375 110.996094 150.410156 108.691406 149.75 C 104.898438 148.664062 101.050781 147.753906 97.421875 146.160156 C 96.804688 145.890625 96.136719 145.738281 95.507812 145.496094 C 93.132812 144.566406 90.738281 143.691406 88.40625 142.664062 C 86.507812 141.832031 84.675781 140.828125 82.828125 139.875 C 78.710938 137.742188 74.796875 135.277344 70.902344 132.769531 C 65.679688 129.40625 60.851562 125.542969 56.203125 121.4375 C 55.710938 121 55.113281 120.621094 54.9375 119.894531 C 55.246094 119.3125 55.863281 119.226562 56.371094 119.035156 C 60.695312 117.375 65.035156 115.757812 69.582031 114.804688 C 73.398438 114.007812 77.21875 113.191406 81.054688 112.484375 C 82.996094 112.128906 84.972656 111.976562 86.933594 111.757812 C 91.59375 111.230469 96.265625 110.816406 100.953125 110.898438 C 106.417969 110.992188 111.875 111.277344 117.242188 112.460938 C 117.496094 112.515625 117.757812 112.539062 118.015625 112.550781 C 118.097656 112.554688 118.179688 112.46875 118.332031 112.386719 Z M 141.738281 105.011719 C 141.738281 105.097656 141.734375 105.179688 141.734375 105.261719 C 141.789062 105.242188 141.84375 105.21875 141.898438 105.199219 C 141.835938 105.144531 141.769531 105.089844 141.707031 105.039062 C 141.707031 104.882812 141.757812 104.710938 141.707031 104.578125 C 140.640625 101.867188 139.574219 99.160156 138 96.6875 C 135.351562 92.523438 132.113281 88.882812 128.339844 85.71875 C 122.480469 80.800781 116.019531 76.878906 108.898438 74.050781 C 108.476562 73.878906 108.0625 73.679688 107.375 73.675781 C 107.867188 74.019531 108.1875 74.261719 108.519531 74.484375 C 110.585938 75.878906 112.683594 77.238281 114.722656 78.675781 C 118.425781 81.277344 121.992188 84.058594 125.519531 86.898438 C 128.574219 89.351562 131.367188 92.089844 133.910156 95.042969 C 136.046875 97.515625 137.902344 100.238281 139.871094 102.855469 C 140.339844 103.476562 140.769531 104.132812 141.246094 104.75 C 141.347656 104.882812 141.570312 104.925781 141.738281 105.011719 Z M 246.859375 74.042969 C 246.824219 73.949219 246.792969 73.859375 246.757812 73.769531 C 246.378906 73.886719 245.984375 73.972656 245.617188 74.125 C 239.011719 76.796875 232.945312 80.378906 227.40625 84.863281 C 224.28125 87.394531 221.472656 90.230469 218.996094 93.414062 C 216.375 96.777344 214.515625 100.53125 213.019531 104.492188 C 212.953125 104.667969 212.96875 104.875 212.914062 105.347656 C 213.792969 104.457031 214.296875 103.625 214.851562 102.832031 C 216.875 99.929688 218.9375 97.042969 221.324219 94.425781 C 224.097656 91.386719 227.070312 88.558594 230.308594 85.996094 C 234.59375 82.601562 238.945312 79.304688 243.480469 76.257812 C 244.597656 75.507812 245.734375 74.78125 246.859375 74.042969 "/></g><path style=" stroke:none;fill-rule:evenodd;fill:#0097b2;fill-opacity:1;" d="M 160.617188 103.867188 C 160.9375 104.453125 161.15625 104.792969 161.316406 105.15625 C 162.632812 108.117188 163.578125 111.191406 164.058594 114.394531 C 164.449219 116.996094 164.292969 119.578125 163.402344 122.089844 C 162.984375 123.265625 162.644531 124.46875 162.207031 125.636719 C 161.917969 126.410156 161.578125 127.183594 161.15625 127.894531 C 159.804688 130.175781 158.40625 132.429688 157.023438 134.691406 C 156.914062 134.867188 156.789062 135.039062 156.679688 135.210938 C 156.425781 135.597656 156.078125 135.765625 155.617188 135.710938 C 155.101562 135.652344 154.582031 135.609375 154.066406 135.554688 C 151.636719 135.289062 149.210938 135.015625 146.761719 134.988281 C 145.152344 134.96875 143.539062 134.804688 141.933594 134.855469 C 139.597656 134.925781 137.261719 135.121094 134.933594 135.289062 C 134.421875 135.324219 133.925781 135.414062 133.46875 135.328125 C 133.320312 134.976562 133.535156 134.855469 133.6875 134.75 C 134.199219 134.390625 134.703125 134.019531 135.25 133.71875 C 137.800781 132.304688 140.199219 130.660156 142.613281 129.027344 C 143.734375 128.273438 144.890625 127.566406 146.070312 126.910156 C 148.308594 125.667969 150.351562 124.179688 152.3125 122.53125 C 154.585938 120.613281 156.023438 118.238281 156.875 115.429688 C 157.957031 111.847656 159.097656 108.285156 160.21875 104.714844 C 160.28125 104.519531 160.390625 104.34375 160.617188 103.867188 "/><path style=" stroke:none;fill-rule:evenodd;fill:#0097b2;fill-opacity:1;" d="M 194.46875 103.863281 C 194.734375 104.625 194.910156 105.101562 195.066406 105.582031 C 195.710938 107.609375 196.359375 109.640625 196.996094 111.671875 C 197.402344 112.957031 197.835938 114.238281 198.183594 115.542969 C 198.941406 118.402344 200.46875 120.753906 202.75 122.625 C 204.722656 124.246094 206.8125 125.675781 209.019531 126.964844 C 211.445312 128.375 213.75 129.980469 216.117188 131.488281 C 217.035156 132.074219 217.984375 132.613281 218.90625 133.191406 C 219.746094 133.710938 220.574219 134.25 221.398438 134.789062 C 221.519531 134.867188 221.589844 135.007812 221.683594 135.121094 C 221.480469 135.519531 221.132812 135.378906 220.863281 135.359375 C 219.046875 135.238281 217.238281 135.089844 215.425781 134.949219 C 213.246094 134.78125 211.066406 134.777344 208.886719 134.949219 C 206.8125 135.109375 204.738281 135.222656 202.667969 135.375 C 201.738281 135.441406 200.796875 135.5 199.882812 135.664062 C 199.039062 135.820312 198.503906 135.578125 198.078125 134.839844 C 197.378906 133.625 196.617188 132.445312 195.886719 131.25 C 195.695312 130.941406 195.539062 130.605469 195.328125 130.3125 C 193.171875 127.292969 192.085938 123.828125 191.121094 120.3125 C 190.636719 118.527344 190.648438 116.6875 190.890625 114.890625 C 191.371094 111.320312 192.433594 107.898438 193.949219 104.621094 C 194.03125 104.441406 194.171875 104.289062 194.46875 103.863281 "/><path style=" stroke:none;fill-rule:evenodd;fill:#0097b2;fill-opacity:1;" d="M 230.839844 131.238281 C 230.238281 131.277344 229.769531 130.804688 229.871094 130.335938 C 230.136719 129.082031 230.785156 128.050781 231.851562 127.328125 C 232.160156 127.117188 232.585938 127.144531 232.855469 127.429688 C 233.042969 127.628906 233.242188 127.992188 233.1875 128.226562 C 232.9375 129.296875 232.429688 130.246094 231.539062 130.929688 C 231.304688 131.109375 230.984375 131.175781 230.839844 131.238281 "/><path style=" stroke:none;fill-rule:evenodd;fill:#0097b2;fill-opacity:1;" d="M 124.257812 131.316406 C 123.894531 131.109375 123.472656 130.980469 123.203125 130.707031 C 122.582031 130.082031 122.125 129.335938 121.882812 128.476562 C 121.75 128.003906 121.875 127.613281 122.21875 127.394531 C 122.566406 127.167969 123.003906 127.183594 123.363281 127.464844 C 124.199219 128.121094 124.71875 129 125.0625 129.984375 C 125.191406 130.34375 125.097656 130.707031 124.820312 130.980469 C 124.6875 131.113281 124.488281 131.179688 124.257812 131.316406 "/><path style=" stroke:none;fill-rule:evenodd;fill:#0097b2;fill-opacity:1;" d="M 141.707031 105.039062 C 141.769531 105.089844 141.835938 105.144531 141.898438 105.199219 C 141.84375 105.21875 141.789062 105.242188 141.734375 105.261719 C 141.734375 105.179688 141.738281 105.097656 141.738281 105.011719 C 141.738281 105.011719 141.707031 105.039062 141.707031 105.039062 "/><g style="fill:#af4c0f;fill-opacity:1;"><g transform="translate(0.693239, 206.439803)"><path style="stroke:none" d="M 21.21875 -24.296875 C 20.800781 -24.773438 20.3125 -25.203125 19.75 -25.578125 C 19.1875 -25.960938 18.550781 -26.289062 17.84375 -26.5625 C 17.144531 -26.84375 16.394531 -27.066406 15.59375 -27.234375 C 14.800781 -27.410156 13.953125 -27.5 13.046875 -27.5 C 10.441406 -27.5 8.523438 -27 7.296875 -26 C 6.078125 -25 5.46875 -23.644531 5.46875 -21.9375 C 5.46875 -20.757812 5.753906 -19.832031 6.328125 -19.15625 C 6.910156 -18.488281 7.816406 -17.941406 9.046875 -17.515625 C 10.285156 -17.097656 11.859375 -16.664062 13.765625 -16.21875 C 15.898438 -15.757812 17.738281 -15.222656 19.28125 -14.609375 C 20.832031 -13.992188 22.023438 -13.160156 22.859375 -12.109375 C 23.703125 -11.054688 24.125 -9.628906 24.125 -7.828125 C 24.125 -6.453125 23.859375 -5.257812 23.328125 -4.25 C 22.796875 -3.238281 22.050781 -2.394531 21.09375 -1.71875 C 20.144531 -1.050781 19.007812 -0.554688 17.6875 -0.234375 C 16.363281 0.0859375 14.914062 0.25 13.34375 0.25 C 11.800781 0.25 10.320312 0.0859375 8.90625 -0.234375 C 7.488281 -0.554688 6.144531 -1.03125 4.875 -1.65625 C 3.613281 -2.289062 2.4375 -3.097656 1.34375 -4.078125 L 2.828125 -6.484375 C 3.359375 -5.921875 3.992188 -5.394531 4.734375 -4.90625 C 5.484375 -4.414062 6.3125 -3.972656 7.21875 -3.578125 C 8.132812 -3.179688 9.117188 -2.878906 10.171875 -2.671875 C 11.222656 -2.460938 12.3125 -2.359375 13.4375 -2.359375 C 15.820312 -2.359375 17.679688 -2.789062 19.015625 -3.65625 C 20.347656 -4.53125 21.015625 -5.820312 21.015625 -7.53125 C 21.015625 -8.769531 20.675781 -9.757812 20 -10.5 C 19.320312 -11.25 18.3125 -11.859375 16.96875 -12.328125 C 15.625 -12.804688 13.96875 -13.273438 12 -13.734375 C 9.925781 -14.203125 8.171875 -14.734375 6.734375 -15.328125 C 5.304688 -15.921875 4.234375 -16.703125 3.515625 -17.671875 C 2.796875 -18.640625 2.4375 -19.921875 2.4375 -21.515625 C 2.4375 -23.367188 2.890625 -24.929688 3.796875 -26.203125 C 4.710938 -27.484375 5.972656 -28.453125 7.578125 -29.109375 C 9.179688 -29.773438 11.019531 -30.109375 13.09375 -30.109375 C 14.414062 -30.109375 15.644531 -29.972656 16.78125 -29.703125 C 17.914062 -29.441406 18.96875 -29.054688 19.9375 -28.546875 C 20.90625 -28.046875 21.8125 -27.414062 22.65625 -26.65625 Z M 21.21875 -24.296875 "/></g></g><g style="fill:#af4c0f;fill-opacity:1;"><g transform="translate(25.790637, 206.439803)"><path style="stroke:none" d="M 13.015625 -29.890625 L 15.5 -29.890625 L 27.921875 0 L 24.796875 0 L 20.921875 -9.34375 L 7.5 -9.34375 L 3.65625 0 L 0.5 0 Z M 20.25 -11.671875 L 14.234375 -26.4375 L 8.125 -11.671875 Z M 20.25 -11.671875 "/></g></g><g style="fill:#af4c0f;fill-opacity:1;"><g transform="translate(53.793616, 206.439803)"><path style="stroke:none" d="M 3.75 0 L 3.75 -29.890625 L 6.703125 -29.890625 L 6.703125 -2.609375 L 23.953125 -2.609375 L 23.953125 0 Z M 3.75 0 "/></g></g><g style="fill:#af4c0f;fill-opacity:1;"><g transform="translate(77.880379, 206.439803)"><path style="stroke:none" d="M 15.796875 0.203125 C 13.691406 0.203125 11.78125 -0.210938 10.0625 -1.046875 C 8.351562 -1.890625 6.878906 -3.035156 5.640625 -4.484375 C 4.410156 -5.929688 3.457031 -7.554688 2.78125 -9.359375 C 2.101562 -11.171875 1.765625 -13.035156 1.765625 -14.953125 C 1.765625 -16.941406 2.113281 -18.84375 2.8125 -20.65625 C 3.519531 -22.46875 4.507812 -24.082031 5.78125 -25.5 C 7.0625 -26.914062 8.554688 -28.035156 10.265625 -28.859375 C 11.984375 -29.691406 13.835938 -30.109375 15.828125 -30.109375 C 17.929688 -30.109375 19.835938 -29.671875 21.546875 -28.796875 C 23.265625 -27.929688 24.734375 -26.769531 25.953125 -25.3125 C 27.179688 -23.851562 28.128906 -22.222656 28.796875 -20.421875 C 29.472656 -18.628906 29.8125 -16.789062 29.8125 -14.90625 C 29.8125 -12.914062 29.457031 -11.015625 28.75 -9.203125 C 28.050781 -7.390625 27.070312 -5.773438 25.8125 -4.359375 C 24.550781 -2.941406 23.0625 -1.828125 21.34375 -1.015625 C 19.632812 -0.203125 17.785156 0.203125 15.796875 0.203125 Z M 4.71875 -14.953125 C 4.71875 -13.316406 4.984375 -11.75 5.515625 -10.25 C 6.046875 -8.75 6.800781 -7.414062 7.78125 -6.25 C 8.769531 -5.082031 9.941406 -4.15625 11.296875 -3.46875 C 12.660156 -2.78125 14.160156 -2.4375 15.796875 -2.4375 C 17.503906 -2.4375 19.035156 -2.796875 20.390625 -3.515625 C 21.753906 -4.234375 22.921875 -5.1875 23.890625 -6.375 C 24.859375 -7.570312 25.59375 -8.914062 26.09375 -10.40625 C 26.601562 -11.894531 26.859375 -13.410156 26.859375 -14.953125 C 26.859375 -16.578125 26.59375 -18.132812 26.0625 -19.625 C 25.53125 -21.113281 24.765625 -22.445312 23.765625 -23.625 C 22.773438 -24.800781 21.601562 -25.722656 20.25 -26.390625 C 18.90625 -27.066406 17.421875 -27.40625 15.796875 -27.40625 C 14.109375 -27.40625 12.582031 -27.054688 11.21875 -26.359375 C 9.863281 -25.660156 8.703125 -24.710938 7.734375 -23.515625 C 6.765625 -22.328125 6.019531 -20.988281 5.5 -19.5 C 4.976562 -18.007812 4.71875 -16.492188 4.71875 -14.953125 Z M 4.71875 -14.953125 "/></g></g><g style="fill:#af4c0f;fill-opacity:1;"><g transform="translate(109.041604, 206.439803)"><path style="stroke:none" d="M 6.703125 -24.46875 L 6.703125 0 L 3.75 0 L 3.75 -29.890625 L 6.1875 -29.890625 L 25.8125 -4.96875 L 25.8125 -29.859375 L 28.765625 -29.859375 L 28.765625 0 L 26.03125 0 Z M 6.703125 -24.46875 "/></g></g><g style="fill:#af4c0f;fill-opacity:1;"><g transform="translate(141.087139, 206.439803)"><path style="stroke:none" d=""/></g></g><g style="fill:#af4c0f;fill-opacity:1;"><g transform="translate(151.361863, 206.439803)"><path style="stroke:none" d="M 3.75 0 L 3.75 -29.890625 L 13.890625 -29.890625 C 17.066406 -29.890625 19.710938 -29.222656 21.828125 -27.890625 C 23.953125 -26.554688 25.546875 -24.757812 26.609375 -22.5 C 27.679688 -20.25 28.21875 -17.742188 28.21875 -14.984375 C 28.21875 -11.953125 27.632812 -9.3125 26.46875 -7.0625 C 25.300781 -4.820312 23.644531 -3.082031 21.5 -1.84375 C 19.351562 -0.613281 16.816406 0 13.890625 0 Z M 25.265625 -14.984375 C 25.265625 -17.367188 24.820312 -19.488281 23.9375 -21.34375 C 23.050781 -23.195312 21.765625 -24.648438 20.078125 -25.703125 C 18.398438 -26.753906 16.335938 -27.28125 13.890625 -27.28125 L 6.703125 -27.28125 L 6.703125 -2.609375 L 13.890625 -2.609375 C 16.367188 -2.609375 18.445312 -3.15625 20.125 -4.25 C 21.8125 -5.34375 23.085938 -6.820312 23.953125 -8.6875 C 24.828125 -10.5625 25.265625 -12.660156 25.265625 -14.984375 Z M 25.265625 -14.984375 "/></g></g><g style="fill:#af4c0f;fill-opacity:1;"><g transform="translate(181.007134, 206.439803)"><path style="stroke:none" d="M 23.828125 -2.609375 L 23.828125 0 L 3.75 0 L 3.75 -29.890625 L 23.453125 -29.890625 L 23.453125 -27.28125 L 6.703125 -27.28125 L 6.703125 -16.5 L 21.3125 -16.5 L 21.3125 -14.015625 L 6.703125 -14.015625 L 6.703125 -2.609375 Z M 23.828125 -2.609375 "/></g></g><g style="fill:#af4c0f;fill-opacity:1;"><g transform="translate(206.188754, 206.439803)"><path style="stroke:none" d=""/></g></g><g style="fill:#af4c0f;fill-opacity:1;"><g transform="translate(216.463466, 206.439803)"><path style="stroke:none" d="M 30.234375 0 L 30.234375 -24.34375 L 19.40625 -5.4375 L 17.5625 -5.4375 L 6.703125 -24.34375 L 6.703125 0 L 3.75 0 L 3.75 -29.890625 L 6.78125 -29.890625 L 18.4375 -9.4375 L 30.1875 -29.890625 L 33.1875 -29.890625 L 33.1875 0 Z M 30.234375 0 "/></g></g><g style="fill:#af4c0f;fill-opacity:1;"><g transform="translate(252.930534, 206.439803)"><path style="stroke:none" d="M 13.015625 -29.890625 L 15.5 -29.890625 L 27.921875 0 L 24.796875 0 L 20.921875 -9.34375 L 7.5 -9.34375 L 3.65625 0 L 0.5 0 Z M 20.25 -11.671875 L 14.234375 -26.4375 L 8.125 -11.671875 Z M 20.25 -11.671875 "/></g></g><g style="fill:#af4c0f;fill-opacity:1;"><g transform="translate(280.933514, 206.439803)"><path style="stroke:none" d="M 21.21875 -24.296875 C 20.800781 -24.773438 20.3125 -25.203125 19.75 -25.578125 C 19.1875 -25.960938 18.550781 -26.289062 17.84375 -26.5625 C 17.144531 -26.84375 16.394531 -27.066406 15.59375 -27.234375 C 14.800781 -27.410156 13.953125 -27.5 13.046875 -27.5 C 10.441406 -27.5 8.523438 -27 7.296875 -26 C 6.078125 -25 5.46875 -23.644531 5.46875 -21.9375 C 5.46875 -20.757812 5.753906 -19.832031 6.328125 -19.15625 C 6.910156 -18.488281 7.816406 -17.941406 9.046875 -17.515625 C 10.285156 -17.097656 11.859375 -16.664062 13.765625 -16.21875 C 15.898438 -15.757812 17.738281 -15.222656 19.28125 -14.609375 C 20.832031 -13.992188 22.023438 -13.160156 22.859375 -12.109375 C 23.703125 -11.054688 24.125 -9.628906 24.125 -7.828125 C 24.125 -6.453125 23.859375 -5.257812 23.328125 -4.25 C 22.796875 -3.238281 22.050781 -2.394531 21.09375 -1.71875 C 20.144531 -1.050781 19.007812 -0.554688 17.6875 -0.234375 C 16.363281 0.0859375 14.914062 0.25 13.34375 0.25 C 11.800781 0.25 10.320312 0.0859375 8.90625 -0.234375 C 7.488281 -0.554688 6.144531 -1.03125 4.875 -1.65625 C 3.613281 -2.289062 2.4375 -3.097656 1.34375 -4.078125 L 2.828125 -6.484375 C 3.359375 -5.921875 3.992188 -5.394531 4.734375 -4.90625 C 5.484375 -4.414062 6.3125 -3.972656 7.21875 -3.578125 C 8.132812 -3.179688 9.117188 -2.878906 10.171875 -2.671875 C 11.222656 -2.460938 12.3125 -2.359375 13.4375 -2.359375 C 15.820312 -2.359375 17.679688 -2.789062 19.015625 -3.65625 C 20.347656 -4.53125 21.015625 -5.820312 21.015625 -7.53125 C 21.015625 -8.769531 20.675781 -9.757812 20 -10.5 C 19.320312 -11.25 18.3125 -11.859375 16.96875 -12.328125 C 15.625 -12.804688 13.96875 -13.273438 12 -13.734375 C 9.925781 -14.203125 8.171875 -14.734375 6.734375 -15.328125 C 5.304688 -15.921875 4.234375 -16.703125 3.515625 -17.671875 C 2.796875 -18.640625 2.4375 -19.921875 2.4375 -21.515625 C 2.4375 -23.367188 2.890625 -24.929688 3.796875 -26.203125 C 4.710938 -27.484375 5.972656 -28.453125 7.578125 -29.109375 C 9.179688 -29.773438 11.019531 -30.109375 13.09375 -30.109375 C 14.414062 -30.109375 15.644531 -29.972656 16.78125 -29.703125 C 17.914062 -29.441406 18.96875 -29.054688 19.9375 -28.546875 C 20.90625 -28.046875 21.8125 -27.414062 22.65625 -26.65625 Z M 21.21875 -24.296875 "/></g></g><g style="fill:#af4c0f;fill-opacity:1;"><g transform="translate(306.030912, 206.439803)"><path style="stroke:none" d="M 13.015625 -29.890625 L 15.5 -29.890625 L 27.921875 0 L 24.796875 0 L 20.921875 -9.34375 L 7.5 -9.34375 L 3.65625 0 L 0.5 0 Z M 20.25 -11.671875 L 14.234375 -26.4375 L 8.125 -11.671875 Z M 20.25 -11.671875 "/></g></g><g style="fill:#af4c0f;fill-opacity:1;"><g transform="translate(334.033892, 206.439803)"><path style="stroke:none" d="M 1.4375 -3.75 C 2.019531 -3.320312 2.796875 -2.953125 3.765625 -2.640625 C 4.734375 -2.335938 5.847656 -2.1875 7.109375 -2.1875 C 8.578125 -2.1875 9.757812 -2.429688 10.65625 -2.921875 C 11.550781 -3.410156 12.238281 -4.15625 12.71875 -5.15625 C 13.195312 -6.15625 13.519531 -7.394531 13.6875 -8.875 C 13.851562 -10.363281 13.9375 -12.109375 13.9375 -14.109375 L 13.9375 -29.890625 L 16.890625 -29.890625 L 16.890625 -14.703125 C 16.890625 -12.453125 16.773438 -10.398438 16.546875 -8.546875 C 16.328125 -6.691406 15.894531 -5.085938 15.25 -3.734375 C 14.601562 -2.390625 13.632812 -1.351562 12.34375 -0.625 C 11.050781 0.101562 9.335938 0.46875 7.203125 0.46875 C 5.828125 0.46875 4.601562 0.3125 3.53125 0 C 2.46875 -0.3125 1.488281 -0.773438 0.59375 -1.390625 Z M 1.4375 -3.75 "/></g></g></g></g></g></svg>